<svg width="24" height="36" viewBox="0 0 24 36" fill="none" xmlns="http://www.w3.org/2000/svg">
<path d="M18.689 22.7071C17.9609 23.8058 17.5707 24.9684 17.6434 26.2681C17.6589 26.5451 17.6596 26.8249 17.6397 27.1015C17.6019 27.6287 17.3325 27.8773 16.807 27.8777C13.6107 27.8803 10.4144 27.8812 7.21801 27.8789C6.64496 27.8784 6.37745 27.6088 6.3739 27.025C6.3694 26.2853 6.38565 25.5466 6.2251 24.8162C5.87409 23.2194 4.85088 22.049 3.77413 20.9087C2.00986 19.0404 0.773495 16.8858 0.249892 14.3513C-0.784285 9.34537 1.45123 4.29038 5.84902 1.67086C7.90914 0.443753 10.1484 -0.136715 12.5276 0.0272041C18.3549 0.428694 22.9235 4.35942 23.8268 10.0884C24.4411 13.9853 23.4277 17.4844 20.6864 20.415C20.002 21.1467 19.2736 21.8429 18.689 22.7071ZM18.1829 20.118C18.46 19.8275 18.7374 19.5371 19.0142 19.2463C21.4676 16.6685 22.4764 13.6103 21.8141 10.115C20.7828 4.67191 15.4851 1.12454 10.068 2.21952C4.05273 3.43542 0.689649 9.44836 2.48321 15.1472C3.05444 16.9622 4.14661 18.4254 5.45326 19.7784C6.8066 21.1798 7.92749 22.7437 8.24154 24.7423C8.3056 25.15 8.347 25.5612 8.40179 25.9941C8.7228 25.9584 9.01041 25.899 9.29805 25.8989C11.2904 25.8979 13.2829 25.9009 15.275 25.9255C15.5868 25.9293 15.6515 25.8103 15.64 25.5506C15.6214 25.1309 15.7075 24.722 15.7984 24.317C16.1613 22.6996 17.0856 21.3964 18.1829 20.118Z" fill="#10B981"/>
<path d="M17.0003 29.6379C17.0971 30.8093 16.8116 31.1197 15.5518 31.1153C13.1285 31.1068 10.7051 31.1134 8.28173 31.1168C8.03286 31.1172 7.78789 31.1037 7.55177 31.0211C6.94981 30.8104 6.66564 29.6336 7.10086 29.1743C7.2324 29.0354 7.39307 29.0195 7.56633 29.0195C10.4991 29.0203 13.4318 29.0202 16.3645 29.0205C16.7494 29.0206 16.9742 29.1985 17.0003 29.6379Z" fill="#10B981"/>
<path d="M15.456 32.5305C15.5276 33.0997 15.2662 33.5195 14.9647 33.9135C13.3906 35.9701 9.98531 35.7297 8.71395 33.4743C8.63146 33.328 8.55549 33.17 8.51785 33.0078C8.37672 32.3999 8.55945 32.1746 9.18672 32.1737C11.0391 32.171 12.8914 32.1734 14.7437 32.1717C15.029 32.1714 15.3097 32.1696 15.456 32.5305Z" fill="#10B981"/>
<path d="M7.47057 15.8585C8.25874 13.8611 9.03206 11.8965 9.81207 9.93458C10.0945 9.22428 10.5544 8.97329 11.3042 9.10761C11.6065 9.16174 11.8614 9.29907 11.9835 9.60228C12.9736 12.0609 13.9404 14.5284 14.8271 17.0266C14.8638 17.1299 14.8854 17.2341 14.8102 17.398C14.3182 17.398 13.7987 17.3987 13.2791 17.3976C13.0814 17.3972 13.0265 17.2404 12.9756 17.0967C12.8418 16.7192 12.703 16.3424 12.5949 15.9572C12.5109 15.6577 12.3555 15.5336 12.0346 15.5426C11.31 15.5631 10.5842 15.5613 9.85942 15.5453C9.56237 15.5388 9.40709 15.6556 9.31724 15.9291C9.18749 16.3242 9.03619 16.7122 8.8893 17.1014C8.84148 17.2282 8.80912 17.3906 8.6343 17.393C8.08588 17.4005 7.53729 17.3958 6.90607 17.3958C7.11096 16.8381 7.28467 16.3652 7.47057 15.8585ZM10.1787 13.5677C10.1525 13.6969 10.051 13.8187 10.1378 13.9607C10.6956 13.9607 11.2494 13.9607 11.8606 13.9607C11.5591 13.0365 11.2783 12.1758 10.9675 11.2232C10.6906 12.052 10.4483 12.7772 10.1787 13.5677Z" fill="#10B981"/>
<path d="M15.9174 11.7194C15.9178 10.9476 15.9272 10.2219 15.9144 9.49656C15.9091 9.19776 16.0204 9.08538 16.3193 9.09128C17.9095 9.1227 17.5915 8.87212 17.606 10.3248C17.6275 12.4857 17.604 14.6472 17.6213 16.8082C17.6249 17.2548 17.5157 17.4773 17.025 17.4101C16.6777 17.3625 16.3193 17.4488 15.9174 17.3526C15.9174 15.4904 15.9174 13.6281 15.9174 11.7194Z" fill="#10B981"/>
<path d="M11.8888 4.74253C12.3516 4.72712 12.5225 4.94359 12.5679 5.35438C12.6244 5.86614 12.5714 6.37111 12.5469 6.87776C12.5296 7.23599 12.2822 7.38846 11.9504 7.3843C11.6172 7.38014 11.3847 7.22701 11.3805 6.85776C11.3746 6.33352 11.3754 5.80914 11.3802 5.28488C11.383 4.9771 11.5558 4.8059 11.8888 4.74253Z" fill="#10B981"/>
<path d="M6.86964 12.4768C6.22659 12.7253 5.60046 12.6817 4.97446 12.5858C4.6992 12.5437 4.59884 12.3328 4.58434 12.0853C4.56904 11.8241 4.62892 11.5763 4.92521 11.5055C5.51692 11.3641 6.12005 11.351 6.70195 11.5247C7.12476 11.6509 7.18103 12.0081 6.86964 12.4768Z" fill="#10B981"/>
<path d="M6.79364 7.60075C6.51223 7.27211 6.45614 6.95255 6.79167 6.68743C7.12264 6.42591 7.45562 6.50115 7.73359 6.80806C7.97158 7.07082 8.21784 7.32796 8.43443 7.60772C8.65176 7.88845 8.72337 8.20798 8.42095 8.47489C8.12191 8.73882 7.80873 8.72974 7.52952 8.41602C7.29385 8.15122 7.05441 7.88977 6.79364 7.60075Z" fill="#10B981"/>
</svg>
